<?xml version="1.0" standalone="no"?><!DOCTYPE svg PUBLIC "-//W3C//DTD SVG 1.1//EN" "http://www.w3.org/Graphics/SVG/1.1/DTD/svg11.dtd"><svg class="icon" width="200px" height="200.00px" viewBox="0 0 1024 1024" version="1.1" xmlns="http://www.w3.org/2000/svg"><path d="M650.496 52.288a96 96 0 0 0 38.912 127.68 112 112 0 0 0 144.704 160.224 96.032 96.032 0 0 0 145.056 61.056C987.52 436.8 992 473.888 992 512c0 265.088-214.912 480-480 480-265.088 0-480-214.912-480-480C32 246.912 246.912 32 512 32c48.16 0 94.656 7.104 138.496 20.288z" fill="#F6CF86" /><path d="M160 576a64 32 0 1 0 128 0 64 32 0 1 0-128 0Z" fill="#FA8475" /><path d="M768 576a64 32 0 1 0 128 0 64 32 0 1 0-128 0Z" fill="#FA8475" /><path d="M34.4 464Q32 487.936 32 512q0 11.776 0.576 23.552t1.728 23.488q1.152 11.744 2.88 23.392t4.032 23.2q2.304 11.584 5.184 23.008 2.848 11.424 6.272 22.72 3.424 11.264 7.36 22.336 4 11.104 8.512 21.984 4.48 10.88 9.536 21.536 5.056 10.656 10.592 21.056 5.568 10.4 11.616 20.48 6.08 10.112 12.608 19.936 6.56 9.792 13.568 19.232 7.04 9.472 14.496 18.56 7.456 9.12 15.36 17.856 7.936 8.736 16.256 17.088 8.32 8.32 17.088 16.224 8.704 7.936 17.824 15.392 9.12 7.488 18.56 14.496 9.472 7.04 19.264 13.568 9.824 6.56 19.904 12.608 10.112 6.08 20.512 11.616t21.056 10.56q10.656 5.056 21.536 9.6 10.88 4.48 21.984 8.448 11.072 3.968 22.368 7.392 11.264 3.424 22.72 6.304 11.424 2.848 22.976 5.12 11.52 2.336 23.2 4.064 11.648 1.728 23.36 2.88 11.744 1.152 23.52 1.728 11.776 0.576 23.552 0.576t23.552-0.576q11.776-0.576 23.488-1.728 11.744-1.152 23.392-2.88t23.2-4.032q11.584-2.304 23.008-5.184 11.424-2.848 22.72-6.272 11.264-3.424 22.336-7.36 11.104-4 21.984-8.512 10.88-4.48 21.536-9.536 10.656-5.056 21.056-10.592 10.4-5.568 20.48-11.616 10.112-6.08 19.936-12.608 9.792-6.56 19.264-13.568 9.44-7.04 18.56-14.496t17.824-15.36q8.736-7.936 17.088-16.256 8.32-8.32 16.224-17.088 7.936-8.736 15.392-17.824 7.488-9.12 14.496-18.56 7.04-9.472 13.568-19.264 6.56-9.824 12.608-19.904 6.08-10.112 11.616-20.512t10.56-21.056q5.056-10.656 9.6-21.536 4.48-10.88 8.448-21.984 3.968-11.072 7.392-22.368 3.424-11.264 6.304-22.72 2.848-11.392 5.12-22.976 2.336-11.52 4.064-23.2 1.728-11.648 2.88-23.36 1.152-11.744 1.728-23.52Q992 523.776 992 512q0-24.064-2.4-48-1.12 10.976-2.72 21.888t-3.712 21.76q-2.112 10.816-4.704 21.536-2.592 10.72-5.696 21.312-3.072 10.56-6.656 21.024-3.584 10.432-7.616 20.704-4.064 10.24-8.576 20.32-4.512 10.048-9.504 19.904-4.96 9.856-10.4 19.456t-11.264 18.944q-5.856 9.376-12.16 18.432-6.272 9.056-12.96 17.856-6.688 8.768-13.76 17.216-7.104 8.448-14.56 16.576t-15.296 15.872q-7.84 7.776-16 15.168-8.192 7.424-16.704 14.4-8.512 7.04-17.344 13.664t-17.952 12.8q-9.12 6.24-18.528 12-9.376 5.76-19.04 11.136-9.664 5.344-19.52 10.24-9.92 4.896-20 9.312-10.112 4.448-20.384 8.416-10.304 3.936-20.8 7.424-10.432 3.52-21.056 6.496-10.624 3.008-21.376 5.536-10.72 2.496-21.568 4.512-10.848 2.016-21.76 3.52-10.944 1.536-21.92 2.56-10.976 0.992-22.016 1.504Q523.04 896 512 896t-22.08-0.512q-11.008-0.512-21.984-1.504-10.976-1.024-21.888-2.56-10.944-1.504-21.76-3.52-10.88-2.016-21.6-4.512-10.752-2.528-21.376-5.536-10.624-2.976-21.088-6.496-10.464-3.488-20.736-7.424-10.304-3.968-20.416-8.416-10.08-4.416-19.968-9.312-9.92-4.896-19.552-10.24-9.664-5.344-19.04-11.136-9.408-5.76-18.528-11.968T224.064 800q-8.864-6.624-17.376-13.632-8.512-7.04-16.672-14.4-8.192-7.424-16-15.2-7.872-7.744-15.328-15.872-7.456-8.128-14.56-16.576-7.072-8.448-13.76-17.216-6.72-8.8-12.992-17.856-6.272-9.056-12.128-18.432-5.856-9.344-11.264-18.944-5.44-9.6-10.4-19.456-4.992-9.856-9.504-19.904-4.512-10.08-8.576-20.32-4.032-10.24-7.616-20.704-3.584-10.432-6.656-21.024-3.104-10.592-5.696-21.312-2.592-10.72-4.704-21.536-2.112-10.848-3.712-21.76t-2.72-21.888z" fill="#E9AC71" /><path d="M672 448a64 64 0 1 0 128 0 64 64 0 1 0-128 0Z" fill="#52565F" /><path d="M736 416m16 0l0 0q16 0 16 16l0 0q0 16-16 16l0 0q-16 0-16-16l0 0q0-16 16-16Z" fill="#FFFFFF" /><path d="M768 192m48 0l0 0q48 0 48 48l0 0q0 48-48 48l0 0q-48 0-48-48l0 0q0-48 48-48Z" fill="#F6CF86" /><path d="M768 32m32 0l0 0q32 0 32 32l0 0q0 32-32 32l0 0q-32 0-32-32l0 0q0-32 32-32Z" fill="#F6CF86" /><path d="M928 192m32 0l0 0q32 0 32 32l0 0q0 32-32 32l0 0q-32 0-32-32l0 0q0-32 32-32Z" fill="#F6CF86" /><path d="M384 128m48 0l0 0q48 0 48 48l0 0q0 48-48 48l0 0q-48 0-48-48l0 0q0-48 48-48Z" fill="#B6663C" /><path d="M736 736m32 0l0 0q32 0 32 32l0 0q0 32-32 32l0 0q-32 0-32-32l0 0q0-32 32-32Z" fill="#B6663C" /><path d="M256 704m48 0l0 0q48 0 48 48l0 0q0 48-48 48l0 0q-48 0-48-48l0 0q0-48 48-48Z" fill="#B6663C" /><path d="M544 672m32 0l0 0q32 0 32 32l0 0q0 32-32 32l0 0q-32 0-32-32l0 0q0-32 32-32Z" fill="#B6663C" /><path d="M128 288m32 0l0 0q32 0 32 32l0 0q0 32-32 32l0 0q-32 0-32-32l0 0q0-32 32-32Z" fill="#B6663C" /><path d="M608 256m32 0l0 0q32 0 32 32l0 0q0 32-32 32l0 0q-32 0-32-32l0 0q0-32 32-32Z" fill="#B6663C" /><path d="M416 864m32 0l0 0q32 0 32 32l0 0q0 32-32 32l0 0q-32 0-32-32l0 0q0-32 32-32Z" fill="#B6663C" /><path d="M273.76 373.376a32 32 0 1 0-35.52 53.248l35.52-53.248zM352 464l14.304 28.608a32 32 0 0 0 3.456-55.232L352 464z m-110.304 19.392a32 32 0 0 0 28.608 57.216l-28.608-57.216z m-3.456-56.768l96 64 35.52-53.248-96-64-35.52 53.248z m99.456 8.768l-96 48 28.608 57.216 96-48-28.608-57.216z" fill="#52565F" /><path d="M607.04 551.776a32 32 0 1 0-62.08-15.552l62.08 15.552z m-128-15.552a32 32 0 0 0-62.08 15.552l62.08-15.552z m65.92 0c-3.04 12.096-8.544 23.04-15.136 30.4-6.24 6.944-12.16 9.376-17.824 9.376v64c28 0 50.112-13.568 65.44-30.592 14.976-16.704 24.64-37.76 29.6-57.632l-62.08-15.552zM512 576c-5.696 0-11.584-2.432-17.824-9.408-6.592-7.296-12.096-18.24-15.136-30.368l-62.08 15.552c4.96 19.904 14.624 40.96 29.6 57.6 15.328 17.056 37.44 30.624 65.44 30.624v-64z" fill="#52565F" /></svg>